<svg width="1440" height="897" viewBox="0 0 1440 897" fill="none" xmlns="http://www.w3.org/2000/svg">
<g clip-path="url(#clip0_24_687)">
<mask id="mask0_24_687" style="mask-type:alpha" maskUnits="userSpaceOnUse" x="0" y="0" width="1440" height="897">
<path d="M1440 0H0V897H1440V0Z" fill="white"/>
</mask>
<g mask="url(#mask0_24_687)">
<path d="M1440 0H0V897H1440V0Z" fill="#1D1C3E"/>
<path d="M0 574.158C105.395 567.056 182.68 478.441 264.675 411.843C338.136 352.176 390.869 278.478 452.483 206.642C540.674 103.819 695.021 33.768 704.829 -101.339C714.431 -233.607 606.419 -354.688 498.862 -432.267C400.02 -503.56 269.02 -491.174 147.74 -503.157C48.385 -512.974 -49.732 -523.742 -145.623 -495.945C-241.75 -468.08 -319.032 -406.326 -398.076 -344.935C-495.658 -269.145 -629.589 -214.451 -661.681 -95.135C-693.958 24.867 -629.844 153.055 -559.588 255.556C-495.537 349.005 -387.09 393.072 -288.636 449.127C-195.634 502.078 -106.777 581.353 0 574.158Z" fill="#181734"/>
<path d="M1440 1442.55C1540.17 1431.26 1602.67 1331.71 1672.9 1259.4C1728.97 1201.68 1759.25 1129.35 1807.08 1064.64C1870.7 978.578 2002.11 923.444 2000.34 816.436C1998.61 712.322 1870.04 662.069 1799.16 585.788C1731.22 512.672 1689.99 399.041 1592.52 377.549C1495.04 356.054 1411.86 447.193 1317.43 479.565C1228.48 510.06 1122.15 497.788 1053.7 562.272C983.359 628.547 961.893 730.624 949.259 826.442C936.733 921.439 942.492 1018.87 981.986 1106.17C1021.56 1193.65 1093.34 1259.16 1170.73 1316C1252.31 1375.92 1339.41 1453.88 1440 1442.55Z" fill="#222149"/>
</g>
</g>
<defs>
<clipPath id="clip0_24_687">
<rect width="1440" height="897" fill="white"/>
</clipPath>
</defs>
</svg>
