<svg width="54" height="54" viewBox="0 0 54 54" fill="none" xmlns="http://www.w3.org/2000/svg">
<path d="M24.2409 19.3927H33.9373C34.5802 19.3927 35.1968 19.1373 35.6514 18.6827C36.106 18.2281 36.3614 17.6115 36.3614 16.9686C36.3614 16.3257 36.106 15.7091 35.6514 15.2545C35.1968 14.7999 34.5802 14.5445 33.9373 14.5445H29.0891V12.1205C29.0891 11.4775 28.8337 10.861 28.3791 10.4064C27.9245 9.95176 27.3079 9.69636 26.665 9.69636C26.0221 9.69636 25.4055 9.95176 24.9509 10.4064C24.4963 10.861 24.2409 11.4775 24.2409 12.1205V14.5445C22.3122 14.5445 20.4625 15.3107 19.0986 16.6745C17.7348 18.0384 16.9686 19.8881 16.9686 21.8168C16.9686 23.7455 17.7348 25.5953 19.0986 26.9591C20.4625 28.3229 22.3122 29.0891 24.2409 29.0891H29.0891C29.732 29.0891 30.3486 29.3445 30.8032 29.7991C31.2578 30.2537 31.5132 30.8703 31.5132 31.5132C31.5132 32.1561 31.2578 32.7727 30.8032 33.2273C30.3486 33.6819 29.732 33.9373 29.0891 33.9373H19.3927C18.7498 33.9373 18.1332 34.1927 17.6786 34.6473C17.224 35.1019 16.9686 35.7184 16.9686 36.3614C16.9686 37.0043 17.224 37.6208 17.6786 38.0755C18.1332 38.5301 18.7498 38.7854 19.3927 38.7854H24.2409V41.2095C24.2409 41.8525 24.4963 42.469 24.9509 42.9236C25.4055 43.3782 26.0221 43.6336 26.665 43.6336C27.3079 43.6336 27.9245 43.3782 28.3791 42.9236C28.8337 42.469 29.0891 41.8525 29.0891 41.2095V38.7854C31.0178 38.7854 32.8676 38.0193 34.2314 36.6555C35.5952 35.2916 36.3614 33.4419 36.3614 31.5132C36.3614 29.5845 35.5952 27.7347 34.2314 26.3709C32.8676 25.0071 31.0178 24.2409 29.0891 24.2409H24.2409C23.598 24.2409 22.9814 23.9855 22.5268 23.5309C22.0722 23.0763 21.8168 22.4597 21.8168 21.8168C21.8168 21.1739 22.0722 20.5573 22.5268 20.1027C22.9814 19.6481 23.598 19.3927 24.2409 19.3927ZM26.665 0C21.3912 0 16.2358 1.56387 11.8507 4.49386C7.46569 7.42385 4.04797 11.5884 2.02976 16.4607C0.0115536 21.3331 -0.516502 26.6946 0.512372 31.8671C1.54125 37.0396 4.08084 41.7908 7.81001 45.52C11.5392 49.2492 16.2904 51.7888 21.4629 52.8176C26.6354 53.8465 31.9969 53.3185 36.8693 51.3002C41.7416 49.282 45.9062 45.8643 48.8361 41.4793C51.7661 37.0942 53.33 31.9388 53.33 26.665C53.33 19.593 50.5207 12.8107 45.52 7.81C40.5194 2.80934 33.737 0 26.665 0ZM26.665 48.4818C22.35 48.4818 18.132 47.2023 14.5442 44.805C10.9565 42.4078 8.16016 39.0004 6.5089 35.0139C4.85764 31.0274 4.42559 26.6408 5.2674 22.4087C6.1092 18.1767 8.18705 14.2893 11.2382 11.2382C14.2893 8.18704 18.1767 6.10919 22.4088 5.26739C26.6408 4.42558 31.0274 4.85762 35.0139 6.50889C39.0004 8.16015 42.4078 10.9565 44.805 14.5442C47.2023 18.132 48.4818 22.35 48.4818 26.665C48.4818 32.4512 46.1833 38.0004 42.0918 42.0918C38.0004 46.1833 32.4512 48.4818 26.665 48.4818Z" fill="white"/>
</svg>
