<svg width="1440" height="408" viewBox="0 0 1440 408" fill="none" xmlns="http://www.w3.org/2000/svg">
<path fill-rule="evenodd" clip-rule="evenodd" d="M-60.3955 407.702C-51.5499 387.544 -39.8072 367.297 -24.7557 347.384C-14.626 333.173 -4.11595 319.887 7.01575 308.629C9.40964 306.213 12.0291 304.49 14.8088 303.317C103.901 217.633 255.034 149.928 466.232 157.223C810.826 169.128 1205.91 419.981 1499.63 316.466C1502.48 315.465 1507.23 313.649 1510.55 312.179C1538.85 299.657 1559.69 280.287 1573.21 256.628C1574.29 254.846 1575.05 252.881 1576.05 251.062L1575.86 250.592C1407.71 354.555 910.575 60.6433 673.117 15.2432C371.804 -42.3631 123.665 73.608 -20.1564 316.037C-33.7293 338.921 -45.8818 363.428 -56.5249 389.725" fill="url(#paint0_radial_13_630)"/>
<defs>
<radialGradient id="paint0_radial_13_630" cx="0" cy="0" r="1" gradientUnits="userSpaceOnUse" gradientTransform="translate(752.789 326.203) rotate(30.7824) scale(669.255 486.188)">
<stop offset="0.340615" stop-color="#3633A0"/>
<stop offset="1" stop-color="#201F48"/>
</radialGradient>
</defs>
</svg>
