<svg width="195" height="42" viewBox="0 0 195 42" fill="none" xmlns="http://www.w3.org/2000/svg">
<path d="M3.27709 19.9193C1.90459 19.9193 0.791992 18.8211 0.791992 17.4665V3.77089C0.791992 2.41619 1.90459 1.31799 3.27709 1.31799H17.3511C18.7235 1.31799 19.8361 2.41619 19.8361 3.77089V13.9235C19.8361 17.2349 17.1165 19.9193 13.7615 19.9193H3.27709Z" fill="white"/>
<path d="M22.4404 3.36018C22.4404 1.98778 23.5386 0.875183 24.8933 0.875183H38.5889C39.9435 0.875183 41.0417 1.98778 41.0417 3.36018V17.4342C41.0417 18.8067 39.9435 19.9193 38.5889 19.9193H28.4362C25.1248 19.9193 22.4404 17.1996 22.4404 13.8447V3.36018Z" fill="white"/>
<path d="M3.27709 22.5236C1.90459 22.5236 0.791992 23.6218 0.791992 24.9764V38.6721C0.791992 40.0267 1.90459 41.1249 3.27709 41.1249H17.3511C18.7235 41.1249 19.8361 40.0267 19.8361 38.6721V28.5194C19.8361 25.208 17.1165 22.5236 13.7615 22.5236H3.27709Z" fill="white"/>
<path d="M38.7825 22.5236C40.155 22.5236 41.2676 23.6218 41.2676 24.9764V38.6721C41.2676 40.0267 40.155 41.1249 38.7825 41.1249H24.7085C23.336 41.1249 22.2234 40.0267 22.2234 38.6721V28.5194C22.2234 25.208 24.9431 22.5236 28.298 22.5236H38.7825Z" fill="white"/>
<path d="M76.3493 32L71.3457 22.9861C73.6267 22.1767 76.2389 19.8956 76.2389 15.6278C76.2389 11.0657 73.1485 7.46008 67.7033 7.46008H55.415V32H61.7431V23.7587H64.9808L69.1014 32H76.3493ZM66.7468 18.24H61.7431V12.9789H66.7468C68.4024 12.9789 69.8004 13.9354 69.8004 15.5911C69.8004 17.3202 68.4024 18.24 66.7468 18.24ZM96.792 32V14.2298H91.126V25.7087C90.464 26.5549 89.36 27.4379 87.741 27.4379C85.902 27.4379 84.798 26.7021 84.798 24.5682V14.2298H79.1319V26.886C79.1319 30.1604 80.935 32.4415 84.982 32.4415C87.962 32.4415 90.022 31.117 91.126 29.8661V32H96.792ZM106.111 25.8559V20.4107C106.81 19.4541 108.282 18.7919 109.496 18.7919C111.74 18.7919 113.432 20.4475 113.432 23.0965C113.432 25.7823 111.74 27.4379 109.496 27.4379C108.282 27.4379 106.81 26.8124 106.111 25.8559ZM106.111 32V29.9397C107.583 31.6321 109.385 32.4415 111.372 32.4415C115.75 32.4415 119.209 29.1303 119.209 23.0965C119.209 17.2835 115.787 13.7883 111.372 13.7883C109.422 13.7883 107.509 14.5609 106.111 16.3269V7.46008H100.445V32H106.111ZM123.93 27.9162V18.3872C125.034 16.5108 127.572 14.7816 130.331 14.7816C134.673 14.7816 137.064 18.4608 137.064 23.1333C137.064 27.8058 134.673 31.4481 130.331 31.4481C127.572 31.4481 125.034 29.7925 123.93 27.9162ZM123.93 32V29.0199C125.144 30.8595 127.535 32.4415 130.331 32.4415C135.114 32.4415 138.278 28.7624 138.278 23.1333C138.278 17.541 135.114 13.7883 130.331 13.7883C127.683 13.7883 125.365 15.1863 123.93 17.2835V7.46008H122.826V32H123.93ZM155.788 32V19.1598C155.788 15.5543 153.176 13.7883 149.68 13.7883C146.7 13.7883 144.861 14.8184 143.131 16.842L143.978 17.5778C145.633 15.5911 147.362 14.7816 149.68 14.7816C152.403 14.7816 154.684 16.3269 154.684 19.1966V23.2069C153.028 21.4041 151.042 20.5947 148.54 20.5947C145.376 20.5947 142.322 22.7286 142.322 26.5181C142.322 30.3076 145.413 32.4415 148.54 32.4415C151.042 32.4415 153.028 31.6321 154.684 29.8293V32H155.788ZM148.834 31.4481C145.596 31.4481 143.536 29.2775 143.536 26.5181C143.536 23.7587 145.596 21.588 148.834 21.588C151.152 21.588 153.323 22.5078 154.684 24.3106V28.7256C153.323 30.5284 151.152 31.4481 148.834 31.4481ZM174.742 32V19.6013C174.742 15.4071 172.718 13.7883 169.186 13.7883C166.721 13.7883 164.072 15.4071 162.748 17.0259V14.2298H161.644V32H162.748V18.1297C163.999 16.3637 166.611 14.7816 169.039 14.7816C171.798 14.7816 173.638 15.8854 173.638 19.6013V32H174.742ZM194.786 32L186.251 22.2503L194.897 14.2298H193.315L181.725 25.0464V7.46008H180.622V32H181.725V26.4445L185.404 23.0597L193.204 32H194.786Z" fill="white"/>
</svg>
