<svg width="198" height="43" viewBox="0 0 198 43" fill="none" xmlns="http://www.w3.org/2000/svg">
<path d="M2.95945 20.1089C1.51025 20.1089 0.335449 18.9493 0.335449 17.5189L0.33545 3.05763C0.33545 1.62723 1.51026 0.467666 2.95945 0.467667L17.8203 0.467667C19.2695 0.467667 20.4443 1.62723 20.4443 3.05763L20.4443 13.7779C20.4443 17.2744 17.5726 20.1089 14.0301 20.1089L2.95945 20.1089Z" fill="white"/>
<path d="M23.1942 2.624C23.1942 1.1748 24.3538 0 25.7842 0H40.2455C41.6759 0 42.8354 1.17481 42.8354 2.624V17.4849C42.8354 18.9341 41.6759 20.1089 40.2455 20.1089H29.5252C26.0287 20.1089 23.1942 17.2371 23.1942 13.6946V2.624Z" fill="white"/>
<path d="M2.95945 22.8589C1.51025 22.8589 0.335449 24.0185 0.335449 25.4488L0.33545 39.9101C0.33545 41.3405 1.51026 42.5001 2.95945 42.5001L17.8203 42.5001C19.2695 42.5001 20.4443 41.3405 20.4443 39.9101L20.4443 29.1899C20.4443 25.6934 17.5726 22.8589 14.0301 22.8589L2.95945 22.8589Z" fill="white"/>
<path d="M40.45 22.8589C41.8992 22.8589 43.074 24.0185 43.074 25.4488L43.074 39.9101C43.074 41.3405 41.8992 42.5001 40.45 42.5001L25.5891 42.5001C24.1399 42.5001 22.9651 41.3405 22.9651 39.9101L22.9651 29.1899C22.9651 25.6934 25.8369 22.8589 29.3793 22.8589L40.45 22.8589Z" fill="white"/>
<path d="M69.4803 33.6985L64.1969 24.1806C66.6055 23.326 69.3637 20.9174 69.3637 16.411C69.3637 11.5938 66.1005 7.78665 60.3509 7.78665H47.3756V33.6985H54.0575V24.9965H57.4761L61.8272 33.6985H69.4803ZM59.3409 19.1692H54.0575V13.6139H59.3409C61.089 13.6139 62.5653 14.624 62.5653 16.3721C62.5653 18.198 61.089 19.1692 59.3409 19.1692ZM91.0657 33.6985V14.9347H85.083V27.0554C84.3838 27.9489 83.2183 28.8813 81.509 28.8813C79.5666 28.8813 78.4011 28.1043 78.4011 25.8511V14.9347H72.4185V28.2986C72.4185 31.7561 74.322 34.1647 78.5954 34.1647C81.7421 34.1647 83.9176 32.7661 85.083 31.4453V33.6985H91.0657ZM100.906 27.2108V21.4613C101.644 20.4512 103.198 19.7519 104.48 19.7519C106.85 19.7519 108.637 21.5001 108.637 24.2972C108.637 27.1331 106.85 28.8813 104.48 28.8813C103.198 28.8813 101.644 28.2209 100.906 27.2108ZM100.906 33.6985V31.523C102.46 33.31 104.363 34.1647 106.461 34.1647C111.084 34.1647 114.736 30.6683 114.736 24.2972C114.736 18.1592 111.123 14.4686 106.461 14.4686C104.402 14.4686 102.382 15.2844 100.906 17.1491V7.78665H94.9232V33.6985H100.906ZM126.403 34.1647C129.472 34.1647 131.22 32.9992 132.813 31.018L131.958 30.2798C130.443 32.3388 128.656 33.1158 126.48 33.1158C121.663 33.1158 118.827 29.1921 118.827 24.2972C118.827 19.4023 121.663 15.5175 126.48 15.5175C128.656 15.5175 130.443 16.2556 131.958 18.3145L132.813 17.6153C131.22 15.634 129.472 14.4686 126.403 14.4686C120.964 14.4686 117.545 18.8973 117.545 24.2972C117.545 29.6971 120.964 34.1647 126.403 34.1647ZM151.058 33.6985V14.9347H149.893V29.6971C148.572 31.5618 145.814 33.1158 143.25 33.1158C140.336 33.1158 138.394 32.028 138.394 28.1043V14.9347H137.228V28.1043C137.228 32.533 139.365 34.1647 143.095 34.1647C145.697 34.1647 148.3 32.6107 149.893 30.8237V33.6985H151.058ZM158.433 29.3863V19.3246C159.598 17.3433 162.279 15.5175 165.192 15.5175C169.776 15.5175 172.301 19.4023 172.301 24.336C172.301 29.2698 169.776 33.1158 165.192 33.1158C162.279 33.1158 159.598 31.3676 158.433 29.3863ZM158.433 33.6985V30.5518C159.715 32.4942 162.24 34.1647 165.192 34.1647C170.243 34.1647 173.583 30.2798 173.583 24.336C173.583 18.4311 170.243 14.4686 165.192 14.4686C162.395 14.4686 159.948 15.9448 158.433 18.1592V7.78665H157.267V33.6985H158.433ZM186.982 34.1647C190.129 34.1647 192.305 32.9992 194.208 31.018L193.509 30.2798C191.761 32.1446 189.624 33.1158 186.982 33.1158C182.204 33.1158 179.213 29.2698 179.096 24.6857H195.296V24.2972C195.296 19.0915 192.344 14.4686 186.594 14.4686C181.544 14.4686 177.775 18.8584 177.775 24.2972C177.775 30.0079 181.544 34.1647 186.982 34.1647ZM194.053 23.6368H179.096C179.213 19.9462 181.738 15.5175 186.555 15.5175C191.683 15.5175 194.053 20.0239 194.053 23.6368Z" fill="white"/>
</svg>
