<svg width="54" height="42" viewBox="0 0 54 42" fill="none" xmlns="http://www.w3.org/2000/svg">
<path fill-rule="evenodd" clip-rule="evenodd" d="M43.6363 9.69697H41.2121C40.5691 9.69697 39.9525 9.44156 39.4979 8.98692C39.0432 8.53229 38.7878 7.91568 38.7878 7.27273C38.7878 6.62978 39.0432 6.01316 39.4979 5.55853C39.9525 5.1039 40.5691 4.84848 41.2121 4.84848H43.6363V2.42424C43.6363 1.78129 43.8917 1.16468 44.3463 0.710044C44.801 0.25541 45.4176 0 46.0605 0C46.7035 0 47.3201 0.25541 47.7747 0.710044C48.2294 1.16468 48.4848 1.78129 48.4848 2.42424V4.84848H50.909C51.552 4.84848 52.1686 5.1039 52.6232 5.55853C53.0779 6.01316 53.3333 6.62978 53.3333 7.27273C53.3333 7.91568 53.0779 8.53229 52.6232 8.98692C52.1686 9.44156 51.552 9.69697 50.909 9.69697H48.4848V12.1212C48.4848 12.7642 48.2294 13.3808 47.7747 13.8354C47.3201 14.29 46.7035 14.5455 46.0605 14.5455C45.4176 14.5455 44.801 14.29 44.3463 13.8354C43.8917 13.3808 43.6363 12.7642 43.6363 12.1212V9.69697ZM46.0606 16.9697C45.4177 16.9697 44.801 17.2252 44.3464 17.6798C43.8918 18.1344 43.6364 18.751 43.6364 19.394V33.9394C43.6364 34.5824 43.381 35.199 42.9263 35.6536C42.4717 36.1083 41.8551 36.3637 41.2121 36.3637H7.27273C6.62978 36.3637 6.01316 36.1083 5.55853 35.6536C5.1039 35.199 4.84849 34.5824 4.84849 33.9394V19.3941C4.84856 19.3941 4.84863 19.3941 4.84871 19.3941H33.9396C34.5826 19.3941 35.1992 19.1387 35.6538 18.684C36.1084 18.2294 36.3639 17.6128 36.3639 16.9698C36.3639 16.3269 36.1084 15.7103 35.6538 15.2556C35.1992 14.801 34.5826 14.5456 33.9396 14.5456H4.84871C4.84863 14.5456 4.84856 14.5456 4.84849 14.5456V13.1152C4.84849 10.9091 6.15273 9.69702 8.26667 9.69702H33.9394C34.5824 9.69702 35.199 9.44161 35.6536 8.98698C36.1082 8.53234 36.3636 7.91573 36.3636 7.27278C36.3636 6.62983 36.1082 6.01322 35.6536 5.55858C35.199 5.10395 34.5824 4.84854 33.9394 4.84854H7.27273C5.34388 4.84854 3.49403 5.61477 2.13013 6.97867C0.766231 8.34257 0 10.1924 0 12.1213V33.9394C0 35.8683 0.766231 37.7181 2.13013 39.082C3.49403 40.4459 5.34388 41.2122 7.27273 41.2122H41.2121C43.141 41.2122 44.9908 40.4459 46.3547 39.082C47.7186 37.7181 48.4849 35.8683 48.4849 33.9394V19.394C48.4849 18.751 48.2295 18.1344 47.7748 17.6798C47.3202 17.2252 46.7036 16.9697 46.0606 16.9697ZM19.3936 29.0907H12.1209C11.4779 29.0907 10.8613 28.8353 10.4067 28.3807C9.95206 27.926 9.69665 27.3094 9.69665 26.6665C9.69665 26.0235 9.95206 25.4069 10.4067 24.9523C10.8613 24.4976 11.4779 24.2422 12.1209 24.2422H19.3936C20.0366 24.2422 20.6532 24.4976 21.1078 24.9523C21.5625 25.4069 21.8179 26.0235 21.8179 26.6665C21.8179 27.3094 21.5625 27.926 21.1078 28.3807C20.6532 28.8353 20.0366 29.0907 19.3936 29.0907Z" fill="#FFFAFA"/>
</svg>
