<svg width="64" height="64" viewBox="0 0 64 64" fill="none" xmlns="http://www.w3.org/2000/svg">
<path fill-rule="evenodd" clip-rule="evenodd" d="M5.3545 2.66675H40.3375C41.0503 2.66675 41.734 2.94992 42.238 3.45397C42.7421 3.95802 43.0252 4.64167 43.0252 5.3545V22.6667C43.0252 22.6667 43.0252 25.8967 40.3375 25.8967C37.6497 25.8967 37.6497 22.6667 37.6497 22.6667V8.04226H8.04226V40.3586L12.3846 38.1437C12.4444 38.1437 12.6124 38.0774 12.8303 37.9914C13.2331 37.8324 13.8066 37.6061 14.184 37.6061C14.7655 37.6061 15.3314 37.7947 15.7966 38.1437L20.3846 41.3334C20.3846 41.3334 22.5413 43.4233 21.3334 45.3334C20.1256 47.2436 17.7587 45.6694 17.7587 45.6694L14.184 43.6536L6.96715 47.8843C6.56784 48.1838 6.09301 48.3661 5.59588 48.411C5.09875 48.4558 4.59895 48.3613 4.1525 48.1381C3.70605 47.9148 3.33058 47.5717 3.06816 47.1471C2.80574 46.7225 2.66675 46.2332 2.66675 45.7341V5.3545C2.66675 4.64167 2.94992 3.95802 3.45397 3.45397C3.95802 2.94992 4.64167 2.66675 5.3545 2.66675ZM34.4557 53.2785H42.519C43.2318 53.2785 43.9155 52.9953 44.4195 52.4913C44.9236 51.9872 45.2067 51.3036 45.2067 50.5908C45.2067 49.8779 44.9236 49.1943 44.4195 48.6902C43.9155 48.1862 43.2318 47.903 42.519 47.903H34.4557C33.7429 47.903 33.0592 48.1862 32.5552 48.6902C32.0511 49.1943 31.768 49.8779 31.768 50.5908C31.768 51.3036 32.0511 51.9872 32.5552 52.4913C33.0592 52.9953 33.7429 53.2785 34.4557 53.2785ZM53.27 29.0887H31.768C29.6295 29.0887 27.5785 29.9382 26.0664 31.4504C24.5542 32.9625 23.7047 35.0135 23.7047 37.152V53.2785C23.7047 55.417 24.5542 57.4679 26.0664 58.9801C27.5785 60.4923 29.6295 61.3418 31.768 61.3418H53.27C55.4085 61.3418 57.4594 60.4923 58.9716 58.9801C60.4838 57.4679 61.3333 55.417 61.3333 53.2785V37.152C61.3333 35.0135 60.4838 32.9625 58.9716 31.4504C57.4594 29.9382 55.4085 29.0887 53.27 29.0887ZM55.9578 53.2785C55.9578 53.9913 55.6746 54.675 55.1705 55.179C54.6665 55.6831 53.9828 55.9663 53.27 55.9663H31.768C31.0551 55.9663 30.3715 55.6831 29.8674 55.179C29.3634 54.675 29.0802 53.9913 29.0802 53.2785V45.2152H55.9578V53.2785ZM55.9578 39.8397H29.0802V37.152C29.0802 36.4391 29.3634 35.7555 29.8674 35.2514C30.3715 34.7474 31.0551 34.4642 31.768 34.4642H53.27C53.9828 34.4642 54.6665 34.7474 55.1705 35.2514C55.6746 35.7555 55.9578 36.4391 55.9578 37.152V39.8397ZM32.2741 18.8144H13.4177C12.7049 18.8144 12.0212 18.5312 11.5172 18.0272C11.0131 17.5231 10.7299 16.8395 10.7299 16.1267C10.7299 15.4138 11.0131 14.7302 11.5172 14.2261C12.0212 13.7221 12.7049 13.4389 13.4177 13.4389H32.2741C32.987 13.4389 33.6706 13.7221 34.1747 14.2261C34.6787 14.7302 34.9619 15.4138 34.9619 16.1267C34.9619 16.8395 34.6787 17.5231 34.1747 18.0272C33.6706 18.5312 32.987 18.8144 32.2741 18.8144ZM18.7894 24.1939H13.4139C12.7012 24.1939 12.0177 24.477 11.5137 24.9809C11.0098 25.4849 10.7267 26.1684 10.7267 26.8811C10.7267 27.5938 11.0098 28.2773 11.5137 28.7813C12.0177 29.2852 12.7012 29.5683 13.4139 29.5683H18.7894C19.5021 29.5683 20.1856 29.2852 20.6896 28.7813C21.1935 28.2773 21.4766 27.5938 21.4766 26.8811C21.4766 26.1684 21.1935 25.4849 20.6896 24.9809C20.1856 24.477 19.5021 24.1939 18.7894 24.1939Z" fill="white"/>
</svg>
